Coordinates
version=1
nRows=30
nColumns=23
inDegrees=yes

Units are S.I. units (second, meters, Newtons, ...)
If the header above contains a line with 'inDegrees', this indicates whether rotational values are in degrees (yes) or radians (no).

endheader
time	pelvis_tilt	pelvis_list	pelvis_rotation	pelvis_tx	pelvis_ty	pelvis_tz	hip_flexion_r	hip_adduction_r	hip_rotation_r	knee_angle_r	knee_angle_r_beta	ankle_angle_r	subtalar_angle_r	mtp_angle_r	hip_flexion_l	hip_adduction_l	hip_rotation_l	knee_angle_l	knee_angle_l_beta	ankle_angle_l	subtalar_angle_l	mtp_angle_l
      0.00000000	     -2.70460275	      4.81020693	     11.23587500	      2.22146768	      0.95710828	      1.08983086	     33.04472388	    -11.82089046	     -4.95012150	    121.39205923	      2.11869112	      1.92532528	     -4.73109984	      0.00000000	     15.75378958	      6.87576939	      0.78125375	     46.28281060	      0.80778743	     28.07318587	      4.65038444	      0.00000000
      0.00666667	     -3.20190022	      4.27743749	     10.15742307	      2.22234103	      0.95911287	      1.09128319	     36.31034872	    -10.92931624	     -4.06226940	    119.80380390	      2.09097083	      2.42963086	     -4.76169750	      0.00000000	     13.57939215	      5.58795734	     -0.32848656	     44.88943361	      0.78346842	     28.18206737	      5.96616624	      0.00000000
      0.01333333	     -3.74998442	      3.72021680	      9.29433636	      2.22339528	      0.96101731	      1.09215782	     39.26949904	    -10.09535701	     -3.46463244	    117.99930449	      2.05947638	      3.20897905	     -4.50725630	      0.00000000	     11.31431183	      4.65636022	     -0.73477195	     43.17795923	      0.75359755	     27.98818453	      6.30029321	      0.00000000
      0.02000000	     -3.79931877	      2.82829383	      8.13969936	      2.22497676	      0.96368047	      1.09371540	     41.40555350	     -8.53752110	     -3.11911257	    115.81639116	      2.02137735	      3.86547547	     -4.63839357	      0.00000000	      8.47593820	      2.99809416	     -2.08840926	     41.30917196	      0.72098106	     27.72982237	      7.98773328	      0.00000000
      0.02666667	     -4.51035372	      2.22636057	      7.15594678	      2.22648226	      0.96553167	      1.09478456	     44.05504986	     -7.43054478	     -2.67244628	    113.56729306	      1.98212319	      4.73058216	     -4.48251139	      0.00000000	      6.24305929	      2.18500886	     -2.67784016	     39.18241880	      0.68386222	     26.73384299	      8.20833964	      0.00000000
      0.03333333	     -4.82783097	      1.54377036	      6.02826010	      2.22845572	      0.96826195	      1.09612598	     45.96038961	     -6.03740834	     -2.36091592	    110.93757451	      1.93622594	      5.33999431	     -4.69421464	      0.00000000	      3.47607827	      1.26937789	     -3.50299630	     36.75630234	      0.64151850	     25.26629532	      8.59719572	      0.00000000
      0.04000000	     -4.65349486	      0.44700632	      5.26482568	      2.23113900	      0.97236668	      1.09702154	     46.79502509	     -4.52652468	     -2.80661408	    107.75786149	      1.88072948	      5.92962533	     -5.05974370	      0.00000000	      0.15793385	     -0.02414052	     -4.00233623	     34.07270643	      0.59468091	     22.98095303	      8.88625893	      0.00000000
      0.04666667	     -5.02960829	     -0.31970660	      4.36720442	      2.23377235	      0.97580661	      1.09812629	     48.13439600	     -3.22386656	     -2.88210993	    104.47217789	      1.82338348	      6.42363648	     -5.44335389	      0.00000000	     -2.57989461	     -0.75852472	     -4.51590478	     31.27956835	      0.54593146	     19.90325921	      8.66470479	      0.00000000
      0.05333333	     -5.42902799	     -1.06344241	      3.53193917	      2.23662367	      0.97949382	      1.09920449	     49.22590043	     -1.97284892	     -3.02809703	    100.88706071	      1.76081138	      6.85604734	     -5.88434506	      0.00000000	     -5.25649843	     -1.37777703	     -4.96928991	     28.39382784	      0.49556578	     16.13690545	      8.20368144	      0.00000000
      0.06000000	     -5.90142514	     -1.76793879	      2.77465298	      2.23962366	      0.98326894	      1.10027476	     50.14370515	     -0.79990822	     -3.21959352	     97.01214760	      1.69318139	      7.18586510	     -6.45272757	      0.00000000	     -7.74937567	     -1.91126127	     -5.42790001	     25.54647475	      0.44587010	     11.78502135	      7.66261597	      0.00000000
      0.06666667	     -6.44004387	     -2.41316869	      2.10303905	      2.24271187	      0.98707259	      1.10130006	     50.89263020	      0.27197614	     -3.42575195	     92.85983336	      1.62070983	      7.47785732	     -7.01977243	      0.00000000	    -10.00913271	     -2.36536717	     -5.91511215	     22.84838298	      0.39877951	      7.01077001	      7.05060343	      0.00000000
      0.07333333	     -7.42680146	     -2.64642610	      1.27097378	      2.24551469	      0.99000428	      1.10262880	     52.04684812	      1.16105358	     -3.18889345	     88.61916349	      1.54669618	      7.75225907	     -7.52273245	      0.00000000	    -11.49349442	     -2.44096074	     -7.02258452	     20.63696215	      0.36018294	      2.15760719	      6.96316481	      0.00000000
      0.08000000	     -7.75657505	     -3.38379060	      1.01611239	      2.24878535	      0.99433838	      1.10310899	     52.00809619	      1.97517774	     -3.74215545	     83.78522288	      1.46232800	      7.97121133	     -8.15251719	      0.00000000	    -13.50426900	     -3.01241909	     -7.14941873	     18.50425185	      0.32296012	     -2.94191163	      5.94737862	      0.00000000
      0.08666667	     -9.26627382	     -3.24730056	      0.63948215	      2.25134774	      0.99645517	      1.10375064	     53.32582940	      2.08482088	     -3.63698646	     79.12651506	      1.38101821	      8.42851193	     -8.12029476	      0.00000000	    -13.62187818	     -2.87999643	     -8.12402702	     17.55247651	      0.30634851	     -7.36449442	      6.33097731	      0.00000000
      0.09333333	     -9.32004052	     -3.68246248	      0.13061197	      2.25424225	      1.00075708	      1.10458544	     52.64714293	      3.00476618	     -3.65185254	     73.77550823	      1.28762553	      8.43066806	     -9.08762867	      0.00000000	    -15.47295271	     -3.09660031	     -8.58019673	     16.19425266	      0.28264303	    -11.87669922	      4.83188425	      0.00000000
      0.10000000	    -10.09286682	     -3.63731087	     -0.24529449	      2.25670627	      1.00360522	      1.10511179	     52.68803657	      3.27063507	     -3.57706390	     68.44198690	      1.19453802	      8.79176968	     -9.13551637	      0.00000000	    -15.97065023	     -2.98417482	     -9.18912732	     15.94358471	      0.27826805	    -15.40319308	      4.11882704	      0.00000000
      0.10666667	    -10.68724465	     -3.53704970	     -0.48726775	      2.25900105	      1.00639597	      1.10544853	     52.34655474	      3.35278180	     -3.64050280	     62.87098495	      1.09730569	      9.15354663	     -9.05115906	      0.00000000	    -16.36127153	     -2.84217630	     -9.47453182	     16.24548371	      0.28353718	    -18.21042843	      3.27286572	      0.00000000
      0.11333333	    -11.25601555	     -3.30071188	     -0.77778134	      2.26100862	      1.00875640	      1.10578044	     51.85132482	      3.32744204	     -3.71199946	     57.16187001	      0.99766284	      9.62213700	     -8.56431036	      0.00000000	    -16.48232029	     -2.55807563	     -9.64940104	     17.17617874	      0.29978087	    -20.13677921	      2.45032452	      0.00000000
      0.12000000	    -11.76212080	     -2.97713147	     -1.03460229	      2.26272566	      1.01068916	      1.10609369	     51.17128032	      3.15597867	     -3.95345147	     51.35781170	      0.89636291	     10.14292892	     -7.65941602	      0.00000000	    -16.39497848	     -2.18676617	     -9.52523824	     18.67771891	      0.32598769	    -21.20780877	      1.67100953	      0.00000000
      0.12666667	    -11.98021805	     -2.69260724	     -1.27827603	      2.26425491	      1.01251049	      1.10639455	     50.05637117	      2.94618672	     -4.53769803	     45.48203077	      0.79381119	     10.69543325	     -6.19205145	      0.00000000	    -16.41279537	     -1.81363205	     -9.14862758	     20.61870803	      0.35986434	    -21.61322986	      0.89604677	      0.00000000
      0.13333333	    -12.07444606	     -2.40771423	     -1.51135595	      2.26555952	      1.01396010	      1.10678147	     48.72086509	      2.70740442	     -5.44401575	     39.64321331	      0.69190460	     11.24327095	     -4.14363682	      0.00000000	    -16.35636988	     -1.39804272	     -8.50507620	     23.00180184	      0.40145718	    -21.41303714	      0.22236234	      0.00000000
      0.14000000	    -12.07998077	     -2.09002475	     -1.72838513	      2.26658654	      1.01495487	      1.10727290	     47.26576157	      2.45421155	     -6.62865155	     33.98378921	      0.59312901	     11.66945516	     -1.74886268	      0.00000000	    -16.16916194	     -0.90307040	     -7.62680993	     25.82287542	      0.45069420	    -20.78002213	     -0.30960281	      0.00000000
      0.14666667	    -11.72997243	     -1.96482708	     -1.98655530	      2.26760726	      1.01594653	      1.10796014	     45.37065355	      2.43548587	     -8.18688841	     28.54040675	      0.49812407	     12.02767632	      1.24373885	      0.00000000	    -16.25820386	     -0.56284678	     -6.83853501	     28.88362769	      0.50411440	    -19.88593650	     -0.55522482	      0.00000000
      0.15333333	    -11.50257667	     -1.65490759	     -2.35372619	      2.26792340	      1.01603288	      1.10895483	     43.77443146	      2.51646217	     -9.29723088	     23.62488726	      0.41233207	     12.02973327	      3.64050599	      0.00000000	    -15.91618412	     -0.01450079	     -6.13262081	     32.47648385	      0.56682157	    -18.81773570	     -0.62228629	      0.00000000
      0.16000000	    -11.22194837	     -1.40094155	     -2.82303081	      2.26795451	      1.01571331	      1.11014599	     42.18292372	      2.84572509	     -9.98457667	     19.16981983	      0.33457647	     11.79542762	      5.52806404	      0.00000000	    -15.45888417	      0.47610606	     -5.70955281	     36.36014320	      0.63460422	    -17.70271210	     -0.35737816	      0.00000000
      0.16666667	    -10.94580742	     -1.18980852	     -3.38908470	      2.26758069	      1.01487307	      1.11137904	     40.71979911	      3.33895552	    -10.13130760	     15.33022039	      0.26756282	     11.33839492	      6.65704212	      0.00000000	    -14.79932777	      0.90555503	     -5.57354253	     40.55172218	      0.70776107	    -16.64519709	      0.12340511	      0.00000000
      0.17333333	    -10.58569208	     -1.10438192	     -4.01600558	      2.26698268	      1.01374037	      1.11250862	     39.23056260	      3.98344795	     -9.76986603	     12.07140717	      0.21068580	     10.63479303	      6.97473609	      0.00000000	    -14.08811458	      1.15272343	     -5.77514007	     44.93590916	      0.78427957	    -15.68671822	      0.73963194	      0.00000000
      0.18000000	    -10.26309155	     -1.07751243	     -4.66373187	      2.26609149	      1.01213144	      1.11342817	     38.01951179	      4.56413782	     -9.37855747	      9.78953260	      0.17085958	      9.94846793	      7.05750312	      0.00000000	    -13.17468279	      1.30707756	     -6.12588047	     49.51100072	      0.86412998	    -14.88135049	      1.24430519	      0.00000000
      0.18666667	     -9.84210632	     -1.18224060	     -5.36724507	      2.26500606	      1.01031584	      1.11421320	     36.92517448	      5.15808094	     -9.04345196	      8.48515271	      0.14809385	      9.33059426	      7.01986946	      0.00000000	    -12.26734854	      1.27576465	     -6.71770913	     54.16004888	      0.94527118	    -14.22760675	      1.54596299	      0.00000000
      0.19333333	     -9.28124343	     -1.34808851	     -6.14296227	      2.26371527	      1.00834135	      1.11488606	     35.99744216	      5.66164323	     -9.05355595	      8.33036323	      0.14539227	      8.90487380	      7.23179278	      0.00000000	    -11.43836298	      1.19375016	     -7.42735970	     58.77841814	      1.02587693	    -13.77892430	      0.99376438	      0.00000000
